<?xml version="1.0" encoding="UTF-8"?>
<svg xmlns="http://www.w3.org/2000/svg" viewBox="0 0 428.91 359.66">
  <g id="rentegning">
    <g>
      <path d="M392.04,205.25c130.47,97.65-135.56,196.49-301.25,131.5-158.89-62.33-56.03-135.49-56.03-135.49l357.29,3.99Z" style="fill: #f15a29;"/>
      <path d="M211.44,359.66c-43.84,0-85.87-7.13-121.39-21.06C34.1,316.66,3.92,290.81.36,261.79c-4.3-35.03,31.7-61.07,33.23-62.16l.53-.38h.65s357.94,4.01,357.94,4.01l.52.39c42.65,31.92,39.39,60.56,29.14,78.96-17.13,30.75-68.52,57.53-134.13,69.87-25.6,4.81-51.5,7.19-76.81,7.19ZM35.4,203.26c-4.35,3.29-34.83,27.57-31.07,58.05,3.38,27.45,32.72,52.2,87.18,73.56,55.33,21.7,126.77,26.68,195.99,13.66,64.47-12.12,114.81-38.13,131.37-67.88,13.51-24.26,4-49.64-27.52-73.42l-355.96-3.98Z" style="fill: #36494f;"/>
    </g>
    <g>
      <path d="M152.34,287.84c.46-.88-12.43,29.89,0,64.02,0,0,46.03,9.02,83.97,4.99,0,0-8.11-74.27,9.32-94.62s-93.29,25.6-93.29,25.6Z" style="fill: #00aeef;"/>
      <path d="M215.22,358.88c-31.82,0-62.7-5.96-63.07-6.03-.34-.07-.63-.31-.75-.64-10.82-29.71-2.81-56.81-.1-64.41l.06-.16c.02-.09.05-.18.09-.26.13-.25.36-.43.62-.51,1.8-.75,23.42-9.66,45.38-17.64,46.82-17.01,49.57-13.24,50.6-11.82,1.39,1.91-.91,4.6-1.66,5.48-16.95,19.79-9.17,93.12-9.09,93.86.03.26-.05.53-.22.74-.17.21-.41.34-.67.37-6.89.73-14.06,1.03-21.19,1.03ZM153.09,350.99c5.29.99,47.2,8.46,82.12,4.97-.95-9.31-6.95-74.98,9.66-94.37,1.6-1.87,1.74-2.77,1.56-3-.67-.93-6.16-2.78-48.29,12.52-21.05,7.65-41.8,16.17-45,17.48-2.68,7.56-10.31,33.69-.06,62.4Z" style="fill: #36494f;"/>
    </g>
    <g>
      <path d="M301.04,243.75s40.19,16.1,38.21,91.35c1.34,2.38,67.28-25.45,66.17-39.58-.91-11.62,3.32-23.55-23.22-56.45s-81.15,4.67-81.15,4.67Z" style="fill: #00aeef;"/>
      <path d="M339.72,336.25c-.71,0-1.1-.22-1.34-.65-.09-.16-.13-.34-.13-.52,1.01-38.49-9.27-61.03-18.08-73.16-9.52-13.11-19.4-17.21-19.5-17.25-.34-.14-.58-.45-.62-.82s.12-.72.43-.93c.14-.09,13.97-9.54,30.89-14.8,22.63-7.04,40.47-3.47,51.61,10.33,22.93,28.41,23.12,41.46,23.27,51.94.03,1.75.05,3.41.18,5.05,1.06,13.57-50.76,36.28-63.12,40.03-1.69.51-2.82.77-3.58.77ZM303.08,243.61c3.31,1.74,11.01,6.57,18.62,17,8.96,12.28,19.42,35,18.57,73.6,6.25-.89,45.29-17.51,59.33-30.73,3.32-3.12,4.99-5.85,4.83-7.89-.13-1.71-.16-3.4-.18-5.18-.15-10.18-.33-22.84-22.82-50.72-23.26-28.82-69.51-1.68-78.34,3.91Z" style="fill: #36494f;"/>
    </g>
    <g>
      <path d="M150.89,92.79c3.83-5.8,27.25-22.13,44.17,7.25,0,0-10.26-5.01-12.72-1.42,0,0-6.46-4.12-9.71-1.43.1,1.04-3.39-5.02-8.9-1.11,0,0-.03-4.5-4.2-4.56l-8.64,1.27Z" style="fill: #00aeef;"/>
      <path d="M195.06,101.04c-.15,0-.3-.03-.44-.1-3.09-1.51-9.96-3.92-11.45-1.75-.3.45-.91.57-1.36.28-1.58-1-6.05-3.18-8.32-1.66-.11.19-.27.32-.42.4-.68.34-1.19-.13-1.65-.54-1.17-1.06-3.6-3.25-7.1-.77-.3.22-.7.24-1.03.07-.33-.17-.54-.51-.54-.88,0-.35-.14-3.47-3.14-3.57l-8.56,1.26c-.39.06-.78-.12-.99-.45-.21-.33-.21-.76,0-1.09,2.45-3.72,11.35-10.53,21.76-10.21,9.47.29,17.58,6.18,24.1,17.51.22.38.16.86-.14,1.18-.19.21-.46.32-.73.32ZM185.62,96.35c2.29,0,4.95.8,6.95,1.55-5.84-8.96-12.83-13.62-20.81-13.86-7.85-.24-14.94,4.04-18.38,7.39l6.01-.88c.05,0,.11-.01.16-.01,3.08.05,4.46,2.11,4.95,3.94,3.92-1.9,6.86.48,8.07,1.56,3.12-1.87,7.8.35,9.59,1.34.88-.73,2.11-1.01,3.47-1.01Z" style="fill: #36494f;"/>
    </g>
    <g>
      <path d="M24.47,298.42c-1.28-1.35-6.75-48.96,31.47-50.36l45,4.63s-43.87,16.29-26.46,74.95c0,0-30-8.1-50-29.21Z" style="fill: #00aeef;"/>
      <path d="M74.47,328.63c-.09,0-.17-.01-.26-.03-.3-.08-30.5-8.41-50.47-29.49h0c-1.17-1.23-3.07-17.97,2.58-31.79,5.2-12.74,15.43-19.74,29.58-20.26.05,0,.09,0,.14,0l45,4.63c.46.05.83.41.89.87.06.46-.21.9-.64,1.06-.11.04-10.87,4.15-19.38,15.23-11.25,14.65-13.49,34.88-6.48,58.5.1.35.01.72-.24.98-.19.2-.45.3-.72.3ZM25.28,297.81c16.84,17.72,41.1,26.25,47.73,28.33-8.3-29.67-.63-48.21,7.38-58.6,5.96-7.74,12.84-12.14,16.84-14.25l-41.32-4.25c-11.38.44-19.85,5.12-25.19,13.93-8.29,13.69-6.26,32.8-5.44,34.83ZM25.2,297.73s0,0,0,0h0Z" style="fill: #36494f;"/>
    </g>
    <g>
      <path d="M9.73,229.16s14.69-8.75,28.53.96l-13.79-19.9s-8.11,2.09-14.74,18.95Z" style="fill: #00aeef;"/>
      <path d="M38.26,231.11c-.2,0-.4-.06-.57-.18-13.16-9.22-27.3-1-27.44-.92-.37.22-.83.18-1.16-.1-.33-.28-.44-.73-.28-1.13,6.74-17.13,15.07-19.46,15.42-19.55.41-.11.83.05,1.07.4l13.79,19.9c.28.4.23.94-.12,1.28-.19.19-.45.29-.71.29ZM24.1,211.43c-1.84.85-7.41,4.25-12.44,15.69,4.3-1.81,13.66-4.63,23.22-.12l-10.78-15.57Z" style="fill: #36494f;"/>
    </g>
    <g>
      <path d="M395.76,219.07s4.79-4.97,13.8,1.74l-13.39-12.36-.41,10.62Z" style="fill: #00aeef;"/>
      <path d="M409.56,221.81c-.21,0-.42-.06-.6-.2-8.13-6.05-12.31-2.02-12.49-1.84-.29.29-.73.38-1.11.21-.38-.17-.62-.54-.6-.95l.41-10.62c.01-.39.25-.74.62-.89.36-.15.78-.08,1.06.19l13.39,12.36c.39.36.43.96.09,1.37-.2.24-.48.36-.77.36ZM397.08,210.65l-.25,6.5c1.43-.69,3.7-1.28,6.75-.5l-6.5-6Z" style="fill: #36494f;"/>
    </g>
    <path d="M180.17,151.17l-27.91,4.06-10.91-36.31,6.69-2.79c6.82-2.85,14.15-4.31,21.54-4.29l8.44.02,2.14,39.32Z" style="fill: #f15a29;"/>
    <path d="M154.13,189.94l-21.08-77.77,4.68-2.55c10.94-5.95,23.27-8.38,35.65-7.03l8.91.97,12.06,79.57-40.22,6.8ZM136.57,113.68l19.75,72.85,34.63-5.86-11.28-74.38-6.62-.72c-11.77-1.28-23.49,1.03-33.89,6.69l-2.6,1.41Z" style="fill: #36494f;"/>
    <g>
      <path d="M291.4,246.22c-20.04,25.48-66.96,7.01-75.8,29.11s-37.72,25.05-48.91,22.39c-11.2-2.65-20.33-19.15-26.81-34.18-5.46-12.65-48.9-11.1-62.52-10.3-2.02.12-3.92.82-5.71,1.76-12.14,6.41-53.12-47.42-46.39-58.28,5.09-8.22,19.94-4.61,27.87-1.94,3.33,1.12,6.97.75,10.04-.96,26.77-14.91,46.75-11.46,56.89-7.66,4.78,1.79,10.14.57,13.65-3.13,28.9-30.47,57.77-41.78,70.25-45.24,3.64-1.01,7.54-.3,10.61,1.9,17.11,12.27,83.68,53.97,146.78,11.27.18-.12,105.87,109.72-51.63,91.4-1.84-.21-3.7-.04-5.46.56-6.7,2.26-25.57,6.49-30.79-4.52-1.18-2.48-.92-8.86-.26-11.52,2.93-11.91,17.79-50.67,71.86-30.53" style="fill: #ededed;"/>
      <path d="M175.06,300.58c-3.37,0-6.4-.33-8.84-.91-9.7-2.3-18.92-13.86-28.19-35.33-3.94-9.12-35.09-10.6-60.57-9.09-1.5.09-3.1.59-4.89,1.53-6.59,3.48-17.12-5.59-24.8-13.82-13.49-14.44-29.41-38.91-24.23-47.28,5.77-9.33,21.41-5.75,30.21-2.78,2.76.93,5.83.63,8.43-.81,27.76-15.46,48.61-11.52,58.56-7.79,4.03,1.51,8.55.48,11.49-2.63,30.3-31.94,59.86-42.66,71.17-45.79,4.24-1.17,8.73-.37,12.31,2.2,18.35,13.16,82.99,52.86,144.49,11.23l1.24-.84,1.17.96c.49.4,45.86,46.81,33.46,75.89-7.85,18.4-36.98,24.8-86.6,19.03-1.58-.18-3.13-.03-4.59.46-3.29,1.11-7.51,2.13-11.87,2.57-.01.02-.03.04-.05.06-10.82,13.76-28.84,15.32-44.73,16.69-14.46,1.25-26.94,2.32-30.79,11.93-7.39,18.46-27.98,24.5-42.39,24.5ZM95.56,250.68c19.9,0,41.94,2.31,46.15,12.07,8.61,19.96,17.17,31.07,25.44,33.03,10.25,2.43,38.21-.22,46.59-21.19,4.76-11.9,19.04-13.13,34.16-14.43,13.95-1.2,29.62-2.55,39.61-12.56-6.75-.22-13.03-2.37-15.85-8.33-1.52-3.2-1.06-10.17-.4-12.86,1.33-5.39,6.98-23.67,23.97-32.65,13.32-7.04,30.32-6.8,50.53.73,1.04.39,1.56,1.54,1.18,2.57s-1.54,1.56-2.57,1.18c-19.09-7.11-34.99-7.43-47.26-.94-15.53,8.21-20.73,25.09-21.96,30.07-.61,2.46-.77,8.3.13,10.19,4.21,8.88,20.38,6.16,28.34,3.48,2.02-.68,4.15-.9,6.33-.65,47.1,5.47,74.76.07,82.22-16.08,10.86-23.53-24.54-63.64-31.11-70.74-20.41,13.42-41.09,18.29-60.36,18.29-40.4,0-74.61-21.43-87.3-30.53-2.6-1.86-5.84-2.44-8.91-1.59-8.57,2.37-38.9,12.6-69.33,44.69-4.06,4.28-10.26,5.7-15.8,3.62-9.31-3.49-28.86-7.14-55.21,7.54-3.57,1.99-7.82,2.4-11.65,1.11-6.18-2.08-21.05-6.14-25.53,1.1-3.14,5.07,8.85,26.49,23.75,42.45,10.88,11.66,17.58,14.29,20.01,13.01,2.3-1.21,4.43-1.87,6.52-1.99,5.39-.32,11.74-.57,18.33-.57Z" style="fill: #36494f;"/>
    </g>
    <path d="M119.92,188.24s6.45,9.36,5.25,16.39,15.5-25.77,8.47-19.27c-.81.75-3.98,2.66-5.67,2.88-5.19.67-8.05,0-8.05,0Z" style="fill: #6b7b7f;"/>
    <g>
      <path d="M371.03,61.14c-13.71-21.34-31.17,5.81-31.17,5.81l13.98,23.13c11.5,3.8,31.03-7.41,17.19-28.94Z" style="fill: #ededed;"/>
      <path d="M358.66,93.33c-1.92,0-3.81-.28-5.6-.87l-.88-.29-15.26-25.25.84-1.31c.4-.62,9.86-15.14,21.25-15.14h0c5.4,0,10.15,3.14,14.13,9.33,8.54,13.29,4.66,21.94,1.58,25.91-3.72,4.8-9.99,7.63-16.06,7.63ZM355.48,87.95c5.31,1.32,11.87-.91,15.28-5.32,3.92-5.05,3.27-12.21-1.83-20.14h0c-3-4.66-6.33-7.03-9.91-7.03h0c-6.44,0-13.19,7.46-16.17,11.58l12.64,20.91Z" style="fill: #36494f;"/>
    </g>
    <path d="M349.08,77.9s5.76-13.76,17.78-8.17c12.02,5.59,3.06,14.03,3.06,14.03,0,0-8.1,7.74-16.63,3.24s-4.21-9.1-4.21-9.1Z" style="fill: #6b7b7f;"/>
    <g>
      <path d="M281.5,26.71c-18.57,1.26-14.92,14.72-14.92,14.72l22.83,1.33c9.56-2.84,1.62-16.69-7.91-16.05Z" style="fill: #ededed;"/>
      <path d="M289.7,45.28l-25.06-1.46-.47-1.74c-.07-.24-1.58-6.04,2.02-11.09,2.86-4.01,7.95-6.29,15.14-6.77h0c7.36-.5,13.69,5.7,14.75,11.58.8,4.44-1.48,8.03-5.95,9.36l-.42.12ZM268.79,39.05l20.29,1.18c1.73-.63,2.39-1.77,2.07-3.55-.66-3.63-5.04-7.78-9.49-7.47-5.63.38-9.47,1.96-11.41,4.69-1.27,1.78-1.5,3.78-1.46,5.16Z" style="fill: #36494f;"/>
    </g>
    <g>
      <path d="M136.65,177.05l44.13-31.15c12.82-16.77-72.71-26.8-44.13,31.15Z" style="fill: #ededed;"/>
      <path d="M135.7,180.78l-1.29-2.62c-12.47-25.27-3.04-36.97,3.7-41.69,12.91-9.05,36.56-7.29,44.12.6,2.95,3.07,3.15,6.95.55,10.36l-.23.3-46.83,33.05ZM160.31,135.35c-6.82,0-14.07,1.52-19.34,5.21-8.98,6.3-10.11,17.58-3.33,32.73l41.36-29.19c.91-1.33.78-2.35-.39-3.57-2.99-3.11-10.36-5.18-18.31-5.18Z" style="fill: #36494f;"/>
    </g>
    <path d="M217.65,146.71s106.83,78.45,143.04,3.35c0,0-7.42,49.37-143.04-3.35Z" style="fill: #6b7b7f;"/>
    <path d="M282.12,30.44c1.06,3.06,1.66,8.55-6.55,8.96,0,0,11.61,1,13.15,1.07,3.29.14,5.76-9.6-5.44-11.29-.8-.12-1.43.5-1.16,1.26Z" style="fill: #6b7b7f;"/>
    <g>
      <path d="M360.67,109.86c15.75,67.21-39.98,65.89-84.42,57.01-33.59-6.71-87.07-23.42-69.68-61.43,18.41-40.25,34.8-64.14,69.68-62.61,42.78,1.88,74.44,24.43,84.42,67.03Z" style="fill: #ededed;"/>
      <path d="M314.17,173.22c-10.95,0-23.69-1.46-38.31-4.38-26.92-5.37-61.18-16.04-71.56-36.35-4.31-8.43-4.16-17.81.45-27.88,19.46-42.55,36.65-65.33,71.59-63.78,22.14.97,40.86,7.25,55.64,18.66,15.34,11.84,25.65,28.63,30.63,49.91h0c5.38,22.94,2.88,39.97-7.41,50.61-8.53,8.82-22.08,13.21-41.04,13.21ZM273.04,44.75c-30.77,0-46.12,20.98-64.66,61.52-4.07,8.9-4.25,17.1-.52,24.39,9.65,18.88,42.73,29.05,68.78,34.25,38.5,7.69,63.26,5.17,75.69-7.68,9.28-9.59,11.43-25.38,6.39-46.91h0c-9.45-40.31-38.76-63.57-82.56-65.49-1.06-.05-2.1-.07-3.12-.07Z" style="fill: #36494f;"/>
    </g>
    <path d="M221.55,102.11s10,15.94,16.44,13.67c1.56-.55,13.3-2.38,17.91-10.18,3.72-6.3-34.37-11.64-34.34-3.5Z" style="fill: #36494f;"/>
    <path d="M172.77,299.69c-3.48,0-6.37-.28-8.06-.84-16.89-5.64-27.66-35.84-28.11-37.12-.03-.08-.05-.16-.07-.24-.35-1.45-8.45-35.7,9.7-45.05,3.45-1.78,6.71-2.16,9.69-1.14,3.25,1.12,5.31,3.66,6.46,5.55,1.94-2.09,5.45-4.99,10.18-5.38,4.12-.34,8.23,1.27,12.21,4.78,3.2-1.28,9.8-3.19,14.92.13,3.77,2.45,5.78,7.08,5.98,13.78.05.07.11.14.18.23,13.23,16.95,15.08,28.72,14.3,35.61h0c-.13,1.16-5.57,16.13-18.3,24.01-5.95,3.68-19.66,5.7-29.07,5.7ZM141.36,260.19c.74,2.04,10.84,29.21,24.93,33.92,4.62,1.54,25.76.07,32.92-4.36,10.85-6.72,15.58-19.36,15.98-20.51.62-5.99-1.23-16.32-13.29-31.78-.88-1.13-1.21-1.55-1.22-2.45-.05-5.35-1.3-8.87-3.72-10.44-3.58-2.33-9.24-.17-10.89.54-1.4.61-3.04.33-4.18-.72-3.08-2.85-6.09-4.18-8.93-3.94-3.9.32-6.74,3.46-7.77,4.8-.83,1.06-2.11,1.61-3.47,1.45-1.34-.15-2.48-.97-3.05-2.2-.49-1.06-1.9-3.63-4.38-4.48-1.64-.56-3.58-.28-5.77.85-14.2,7.32-7.66,37.16-7.16,39.31ZM217.65,269.71h0,0ZM215.17,269.37s0,.03,0,.04c0-.01,0-.03,0-.04Z" style="fill: #36494f;"/>
    <path d="M171.51,220.12c-.52,0-1.04-.16-1.49-.5-1.11-.83-1.33-2.39-.51-3.5.76-1.02,18.91-24.98,45.21-26.28,15.56-.77,30.54,6.61,44.51,21.92.93,1.02.86,2.6-.16,3.53-1.02.93-2.6.86-3.53-.16-12.91-14.15-26.55-20.96-40.54-20.3-23.93,1.17-41.3,24.04-41.47,24.28-.49.66-1.24,1-2.01,1Z" style="fill: #36494f;"/>
    <path d="M251.41,132.78c-.41,0-.82-.17-1.11-.49l-15.11-16.68c-.56-.61-.51-1.56.1-2.12.61-.56,1.56-.51,2.12.1l15.11,16.68c.56.61.51,1.56-.1,2.12-.29.26-.65.39-1.01.39Z" style="fill: #36494f;"/>
    <path d="M231.8,128.67c-.17,0-.34-.03-.51-.09-.78-.28-1.19-1.14-.91-1.92l4.51-12.58c.28-.78,1.14-1.19,1.92-.91.78.28,1.19,1.14.91,1.92l-4.51,12.58c-.22.61-.8.99-1.41.99Z" style="fill: #36494f;"/>
    <polygon points="275.02 92.09 276.37 102.33 293.72 107.99 311.05 88.62 275.02 92.09" style="fill: #6b7b7f;"/>
    <polygon points="217.51 78.8 222.88 89.59 236.52 93.99 251.41 76.12 217.51 78.8" style="fill: #6b7b7f;"/>
    <polygon points="236.31 90.81 220.47 87.79 208.87 65 251.41 76.12 236.31 90.81" style="fill: #36494f;"/>
    <polygon points="275.17 99.79 290.77 103.87 311.05 88.29 267.86 80.02 275.17 99.79" style="fill: #36494f;"/>
    <path d="M273.29,92.81c-.39,0-.79-.11-1.13-.35-16.38-11.32-30.37-7.13-30.51-7.09-1.05.33-2.17-.25-2.51-1.3-.33-1.05.24-2.17,1.29-2.51.64-.2,15.91-4.89,34,7.61.91.63,1.14,1.87.51,2.78-.39.56-1.01.86-1.65.86Z" style="fill: #36494f;"/>
    <path d="M169.91,154.43c-.11,0-.21,0-.32-.03-1.09-.18-1.83-1.2-1.65-2.29,1.24-7.64-8.55-9.58-8.96-9.66-1.09-.2-1.8-1.25-1.59-2.34.2-1.09,1.25-1.8,2.34-1.59,4.86.92,13.66,5.07,12.17,14.23-.16.98-1.01,1.68-1.97,1.68Z" style="fill: #36494f;"/>
    <path d="M156.43,161.74c-.94,0-1.78-.67-1.96-1.63-1.48-7.92-5.45-7.6-5.9-7.53-1.08.15-2.1-.58-2.28-1.65-.18-1.07.52-2.09,1.59-2.29.08-.02,8.25-1.39,10.52,10.73.2,1.09-.51,2.13-1.6,2.33-.12.02-.25.03-.37.03Z" style="fill: #36494f;"/>
    <path d="M282.22,244.87c-.92,0-1.75-.64-1.95-1.58-.12-.57-2.87-14.08,8.82-24,.84-.71,2.1-.61,2.82.23.71.84.61,2.1-.23,2.82-9.89,8.4-7.52,20-7.5,20.11.23,1.08-.45,2.14-1.53,2.38-.14.03-.28.04-.42.04Z" style="fill: #36494f;"/>
    <path d="M306.27,243.41c-.28,0-.56-.06-.83-.18-1.32-.6-1.29-2.02-1.28-2.96.07-3.88,1.71-14.55,8.41-17.32,1.02-.42,2.19.06,2.61,1.08.42,1.02-.06,2.19-1.08,2.61-4.71,1.95-6.1,11.93-5.95,14.11.16.47.15,1-.07,1.49-.34.73-1.06,1.17-1.82,1.17ZM307.11,239.6s.1.05.14.07c-.04-.03-.09-.05-.14-.07ZM307.11,239.6s0,0,0,0c0,0,0,0,0,0ZM307.11,239.59s0,0,0,0c0,0,0,0,0,0ZM307.1,239.59s0,0,0,0c0,0,0,0,0,0Z" style="fill: #36494f;"/>
    <path d="M193.02,273.81c.51,10.87-8.2,6.2-18.64,6.69-10.45.49-18.68,5.95-19.18-4.92s7.55-20.08,17.99-20.57c10.45-.49,19.32,7.93,19.83,18.8Z" style="fill: #36494f;"/>
    <circle cx="149.58" cy="235.05" r="4.94" style="fill: #36494f;"/>
    <circle cx="171.56" cy="234.23" r="5.07" style="fill: #36494f;"/>
    <circle cx="191.84" cy="236.26" r="5.15" style="fill: #36494f;"/>
    <ellipse cx="35.3" cy="207.31" rx="4.17" ry="6.57" transform="translate(-88.92 37.63) rotate(-26.54)" style="fill: #36494f;"/>
    <path d="M38.26,227.35s18.93-10.39,27.26,5.22-6.76,7.42-6.76,7.42c0,0-7.52-1.66-8.43,1.29s-12.07-13.93-12.07-13.93Z" style="fill: #36494f;"/>
    <g>
      <path d="M106.51,89.51l.95,5.62,15.79-2.67c1.23-.21,2.46.32,3.16,1.35l27.25,40.02,6.14-2.32-29.47-43c-1.15-1.68-3.18-2.54-5.19-2.19l-18.63,3.2Z" style="fill: #f9ed32;"/>
      <path d="M153.1,135.65l-27.92-40.99c-.37-.54-1.02-.82-1.67-.71l-17.27,2.92-1.45-8.58,20.11-3.45c2.58-.44,5.2.67,6.68,2.82l30.55,44.58-9.03,3.41ZM123.78,90.92c1.53,0,3,.76,3.88,2.05l26.59,39.04,3.24-1.23-28.39-41.43c-.82-1.19-2.27-1.81-3.7-1.56l-17.16,2.94.45,2.67,14.31-2.42c.26-.04.52-.07.78-.07Z" style="fill: #36494f;"/>
    </g>
    <g>
      <polygon points="165.74 124.59 170.91 96.44 173.86 97.01 168.78 124.59 165.74 124.59" style="fill: #f9ed32;"/>
      <path d="M169.61,125.59h-5.07l5.57-30.32,4.91.94-5.41,29.38ZM166.94,123.59h1l4.75-25.79-.99-.19-4.77,25.98Z" style="fill: #36494f;"/>
    </g>
    <path id="indreOere" d="M347.65,80.4c-.68,0-1.36-.28-1.85-.82-.77-.85-.84-2.07-.27-3,.03-.06.06-.14.1-.22,5.43-12.31,15.2-11.85,20.54-10.47,1.34.34,2.14,1.71,1.8,3.04-.34,1.34-1.7,2.14-3.04,1.8-6.85-1.76-11.67.74-14.72,7.65-.25.57-.43.98-.87,1.38-.48.43-1.08.65-1.68.65ZM345.97,76.05s0,0,0,0c0,0,0,0,0,0ZM345.97,76.05s0,0,0,0c0,0,0,0,0,0Z" style="fill: #36494f;"/>
    <polygon id="solbrilleLys" points="231.3 70.86 220.47 87.79 224.84 88.62 235.86 72.05 231.3 70.86" style="fill: #fff;"/>
    <polygon id="solbrilleLys-2" data-name="solbrilleLys" points="285.23 83.35 275.17 99.79 280.01 101.05 290.33 84.32 285.23 83.35" style="fill: #fff;"/>
    <path id="bobbelTre" d="M156.7,121.41c-1.53,0-2.77-1.24-2.77-2.77s1.24-2.77,2.77-2.77,2.77,1.24,2.77,2.77-1.24,2.77-2.77,2.77ZM156.7,116.87c-.98,0-1.77.79-1.77,1.77s.8,1.77,1.77,1.77,1.77-.8,1.77-1.77-.79-1.77-1.77-1.77Z" style="fill: #fff;"/>
    <path id="bobbelTo" d="M162.43,116.27c-1.72,0-3.12-1.4-3.12-3.13s1.4-3.12,3.12-3.12,3.13,1.4,3.13,3.12-1.4,3.13-3.13,3.13ZM162.43,111.02c-1.17,0-2.12.95-2.12,2.12s.95,2.13,2.12,2.13,2.13-.95,2.13-2.13-.95-2.12-2.13-2.12Z" style="fill: #fff;"/>
    <path id="bobbelEn" d="M161.87,125.25c-.95,0-1.73-.78-1.73-1.73s.78-1.73,1.73-1.73,1.73.78,1.73,1.73-.78,1.73-1.73,1.73ZM161.87,122.29c-.68,0-1.23.55-1.23,1.23s.55,1.23,1.23,1.23,1.23-.55,1.23-1.23-.55-1.23-1.23-1.23Z" style="fill: #fff;"/>
    <ellipse id="naeseLys" cx="229.8" cy="101.66" rx="5.35" ry="1.62" style="fill: #ededed;"/>
  </g>
  <g id="hotspots">
    <circle id="hotspotHoved" cx="334.07" cy="26.48" r="26.48" style="fill: #f9ed32;"/>
    <circle id="hotspotMave" cx="193.04" cy="182.59" r="26.48" style="fill: #f9ed32;"/>
    <circle id="hotspotBadering" cx="370.24" cy="287.84" r="26.48" style="fill: #f9ed32;"/>
  </g>
</svg>